<?xml version="1.0" encoding="UTF-8"?>
<svg width="512" height="512" version="1.1" viewBox="0 0 135.47 135.47" xmlns="http://www.w3.org/2000/svg">
 <g transform="translate(0 -161.53)">
  <path d="m67.733 178.86-7.3023 14.605 7.3023 7.3023 7.3023-7.3023zm0 7.3023 3.6512 3.6512-3.6512 3.6512-3.6512-3.6512z" fill="#805ad5"/>
  <path d="m45.826 200.77c-4.0323 0-7.3023 3.27-7.3023 7.3023v51.116c0 4.0323 3.27 7.3023 7.3023 7.3023h43.814c4.0323 0 7.3023-3.27 7.3023-7.3023v-51.116c0-4.0323-3.27-7.3023-7.3023-7.3023zm0 3.6512h43.814c2.0161 0 3.6512 1.6351 3.6512 3.6512v51.116c0 2.0161-1.6351 3.6512-3.6512 3.6512h-43.814c-2.0161 0-3.6512-1.6351-3.6512-3.6512v-51.116c0-2.0161 1.6351-3.6512 3.6512-3.6512z" fill="#6b46c1"/>
  <path d="m67.733 211.72c-8.0645 0-14.605 6.5401-14.605 14.605 0 8.0645 6.5401 14.605 14.605 14.605 8.0645 0 14.605-6.5401 14.605-14.605 0-8.0645-6.5401-14.605-14.605-14.605zm0 3.6512c6.0484 0 10.953 4.9049 10.953 10.953 0 6.0484-4.9049 10.953-10.953 10.953-6.0484 0-10.953-4.9049-10.953-10.953 0-6.0484 4.9049-10.953 10.953-10.953z" fill="#805ad5"/>
  <path d="m60.43 233.62v3.6512h14.605v-3.6512z" fill="#6b46c1"/>
  <path d="m53.128 244.58v3.6512h29.209v-3.6512z" fill="#805ad5"/>
  <path d="m60.43 251.88v3.6512h14.605v-3.6512z" fill="#6b46c1"/>
 </g>
</svg>
